<svg width="81" height="81" viewBox="0 0 24 24" fill="none" xmlns="http://www.w3.org/2000/svg">
<path d="M3 6H22L19 16H6L3 6Z" stroke="#999999" stroke-width="1.5" stroke-linejoin="round"/>
<path d="M11 19.5C11 20.3284 10.3284 21 9.5 21C8.67157 21 8 20.3284 8 19.5C8 18.6716 8.67157 18 9.5 18C10.3284 18 11 18.6716 11 19.5Z" fill="#999999"/>
<path d="M18 19.5C18 20.3284 17.3284 21 16.5 21C15.6716 21 15 20.3284 15 19.5C15 18.6716 15.6716 18 16.5 18C17.3284 18 18 18.6716 18 19.5Z" fill="#999999"/>
</svg>
